<mxfile host="app.diagrams.net" modified="2023-08-07T20:57:48.308Z" agent="Mozilla/5.0 (Macintosh; Intel Mac OS X 10_15_7) AppleWebKit/537.36 (KHTML, like Gecko) Chrome/114.0.0.0 Safari/537.36" etag="0UghH7pSMSiwvnPtdngO" version="21.6.5" type="device">
  <diagram name="Page-1" id="poDoy92hD68d38Il8SEe">
    <mxGraphModel dx="1953" dy="1795" grid="1" gridSize="10" guides="1" tooltips="1" connect="1" arrows="1" fold="1" page="1" pageScale="1" pageWidth="850" pageHeight="1100" math="0" shadow="0">
      <root>
        <mxCell id="0" />
        <mxCell id="1" parent="0" />
        <mxCell id="Bshfgkw_j0F0Dgsfi_hr-19" value="&lt;h1&gt;Добавление использования продукта&lt;/h1&gt;" style="text;html=1;strokeColor=none;fillColor=none;spacing=5;spacingTop=-20;whiteSpace=wrap;overflow=hidden;rounded=0;direction=south;" vertex="1" parent="1">
          <mxGeometry x="215" y="1050" width="325" height="60" as="geometry" />
        </mxCell>
        <mxCell id="Bshfgkw_j0F0Dgsfi_hr-20" value="Вызвать команду /add_expenses" style="rounded=0;whiteSpace=wrap;html=1;fillColor=#ffcc99;strokeColor=#36393d;" vertex="1" parent="1">
          <mxGeometry x="210" y="1120" width="120" height="60" as="geometry" />
        </mxCell>
        <mxCell id="Bshfgkw_j0F0Dgsfi_hr-21" value="Перечислить список продуктов и пользователей" style="rounded=0;whiteSpace=wrap;html=1;fillColor=#ffcc99;strokeColor=#36393d;" vertex="1" parent="1">
          <mxGeometry x="470" y="1120" width="120" height="60" as="geometry" />
        </mxCell>
        <mxCell id="Bshfgkw_j0F0Dgsfi_hr-22" value="Вывести список продуктов сессии с номерами" style="rounded=0;whiteSpace=wrap;html=1;fillColor=#ffcccc;strokeColor=#36393d;" vertex="1" parent="1">
          <mxGeometry x="340" y="1120" width="120" height="60" as="geometry" />
        </mxCell>
        <mxCell id="Bshfgkw_j0F0Dgsfi_hr-25" value="Указать номер продукта и через пробел тегнуть пользователя" style="rounded=0;whiteSpace=wrap;html=1;fillColor=#fff2cc;strokeColor=#d6b656;" vertex="1" parent="1">
          <mxGeometry x="470" y="1210" width="120" height="60" as="geometry" />
        </mxCell>
        <mxCell id="Bshfgkw_j0F0Dgsfi_hr-26" value="Если ни один пользователь не тегнут, то выбрать автора сообщения" style="rounded=0;whiteSpace=wrap;html=1;fillColor=#fff2cc;strokeColor=#d6b656;" vertex="1" parent="1">
          <mxGeometry x="470" y="1290" width="120" height="60" as="geometry" />
        </mxCell>
        <mxCell id="Bshfgkw_j0F0Dgsfi_hr-27" value="Для тега всех пользователей, надо написать @all" style="rounded=0;whiteSpace=wrap;html=1;fillColor=#fff2cc;strokeColor=#d6b656;" vertex="1" parent="1">
          <mxGeometry x="470" y="1370" width="120" height="60" as="geometry" />
        </mxCell>
        <mxCell id="Bshfgkw_j0F0Dgsfi_hr-28" value="&lt;h1&gt;Получение информации о долгах&lt;/h1&gt;" style="text;html=1;strokeColor=none;fillColor=none;spacing=5;spacingTop=-20;whiteSpace=wrap;overflow=hidden;rounded=0;direction=south;" vertex="1" parent="1">
          <mxGeometry x="215" y="1490" width="275" height="60" as="geometry" />
        </mxCell>
        <mxCell id="Bshfgkw_j0F0Dgsfi_hr-29" value="Вызвать команду /calculate_debts" style="rounded=0;whiteSpace=wrap;html=1;fillColor=#ffcc99;strokeColor=#36393d;" vertex="1" parent="1">
          <mxGeometry x="210" y="1560" width="120" height="60" as="geometry" />
        </mxCell>
        <mxCell id="Bshfgkw_j0F0Dgsfi_hr-35" value="1) пиво" style="shape=note;whiteSpace=wrap;html=1;backgroundOutline=1;darkOpacity=0.05;" vertex="1" parent="1">
          <mxGeometry x="360" y="1180" width="80" height="100" as="geometry" />
        </mxCell>
        <mxCell id="Bshfgkw_j0F0Dgsfi_hr-36" value="1 @ivaaahn, @me" style="shape=note;whiteSpace=wrap;html=1;backgroundOutline=1;darkOpacity=0.05;" vertex="1" parent="1">
          <mxGeometry x="635" y="1210" width="115" height="100" as="geometry" />
        </mxCell>
        <mxCell id="Bshfgkw_j0F0Dgsfi_hr-37" value="Для тега себя, надо написать @me" style="rounded=0;whiteSpace=wrap;html=1;fillColor=#fff2cc;strokeColor=#d6b656;" vertex="1" parent="1">
          <mxGeometry x="470" y="1440" width="120" height="60" as="geometry" />
        </mxCell>
        <mxCell id="Bshfgkw_j0F0Dgsfi_hr-38" value="Вывести список людей и тех, кому они должны, а также сумму" style="rounded=0;whiteSpace=wrap;html=1;fillColor=#ffcccc;strokeColor=#36393d;" vertex="1" parent="1">
          <mxGeometry x="350" y="1560" width="120" height="60" as="geometry" />
        </mxCell>
        <mxCell id="Bshfgkw_j0F0Dgsfi_hr-40" value="@ivaaahn должен&lt;br&gt;1) @vasya -- 200руб&lt;br&gt;2) @petya -- 234руб" style="shape=note;whiteSpace=wrap;html=1;backgroundOutline=1;darkOpacity=0.05;align=left;" vertex="1" parent="1">
          <mxGeometry x="540" y="1560" width="190" height="100" as="geometry" />
        </mxCell>
        <mxCell id="Bshfgkw_j0F0Dgsfi_hr-41" value="&lt;h1&gt;Получение extended информации о долгах&lt;/h1&gt;" style="text;html=1;strokeColor=none;fillColor=none;spacing=5;spacingTop=-20;whiteSpace=wrap;overflow=hidden;rounded=0;direction=south;" vertex="1" parent="1">
          <mxGeometry x="235" y="1740" width="275" height="60" as="geometry" />
        </mxCell>
        <mxCell id="Bshfgkw_j0F0Dgsfi_hr-42" value="Вызвать команду /calculate_debts_extended" style="rounded=0;whiteSpace=wrap;html=1;fillColor=#ffcc99;strokeColor=#36393d;" vertex="1" parent="1">
          <mxGeometry x="230" y="1810" width="120" height="60" as="geometry" />
        </mxCell>
        <mxCell id="Bshfgkw_j0F0Dgsfi_hr-43" value="Вывести список людей и тех, кому они должны, а также сумму" style="rounded=0;whiteSpace=wrap;html=1;fillColor=#ffcccc;strokeColor=#36393d;" vertex="1" parent="1">
          <mxGeometry x="370" y="1810" width="120" height="60" as="geometry" />
        </mxCell>
        <mxCell id="Bshfgkw_j0F0Dgsfi_hr-44" value="@ivaaahn должен&lt;br&gt;1) @vasya -- 200руб&lt;br&gt;+ пиво (10) – 50р&lt;br&gt;– водка (1) – 300р&amp;nbsp;" style="shape=note;whiteSpace=wrap;html=1;backgroundOutline=1;darkOpacity=0.05;align=left;" vertex="1" parent="1">
          <mxGeometry x="560" y="1810" width="190" height="100" as="geometry" />
        </mxCell>
        <mxCell id="Bshfgkw_j0F0Dgsfi_hr-45" value="Дополнительно вывести список продуктов и кол-во с ценой" style="rounded=0;whiteSpace=wrap;html=1;fillColor=#ffcccc;strokeColor=#36393d;" vertex="1" parent="1">
          <mxGeometry x="370" y="1890" width="120" height="60" as="geometry" />
        </mxCell>
        <mxCell id="Bshfgkw_j0F0Dgsfi_hr-46" value="&lt;h1&gt;Создание сессии&lt;/h1&gt;" style="text;html=1;strokeColor=none;fillColor=none;spacing=5;spacingTop=-20;whiteSpace=wrap;overflow=hidden;rounded=0;direction=south;" vertex="1" parent="1">
          <mxGeometry x="215" y="-230" width="275" height="60" as="geometry" />
        </mxCell>
        <mxCell id="Bshfgkw_j0F0Dgsfi_hr-54" style="edgeStyle=orthogonalEdgeStyle;rounded=0;orthogonalLoop=1;jettySize=auto;html=1;exitX=1;exitY=0.5;exitDx=0;exitDy=0;entryX=0;entryY=0.5;entryDx=0;entryDy=0;curved=1;strokeColor=#006EAF;fillColor=#1ba1e2;" edge="1" parent="1" source="Bshfgkw_j0F0Dgsfi_hr-47" target="Bshfgkw_j0F0Dgsfi_hr-50">
          <mxGeometry relative="1" as="geometry" />
        </mxCell>
        <mxCell id="Bshfgkw_j0F0Dgsfi_hr-47" value="Вызвать команду /new_session" style="rounded=0;whiteSpace=wrap;html=1;fillColor=#ffcc99;strokeColor=#36393d;" vertex="1" parent="1">
          <mxGeometry x="210" y="-170" width="120" height="60" as="geometry" />
        </mxCell>
        <mxCell id="Bshfgkw_j0F0Dgsfi_hr-62" style="edgeStyle=orthogonalEdgeStyle;shape=connector;curved=1;rounded=0;orthogonalLoop=1;jettySize=auto;html=1;entryX=0;entryY=0.5;entryDx=0;entryDy=0;labelBackgroundColor=default;strokeColor=#006EAF;fontFamily=Helvetica;fontSize=11;fontColor=default;endArrow=classic;fillColor=#1ba1e2;" edge="1" parent="1" source="Bshfgkw_j0F0Dgsfi_hr-48" target="Bshfgkw_j0F0Dgsfi_hr-57">
          <mxGeometry relative="1" as="geometry" />
        </mxCell>
        <mxCell id="Bshfgkw_j0F0Dgsfi_hr-48" value="Указать название сессии" style="rounded=0;whiteSpace=wrap;html=1;fillColor=#ffcc99;strokeColor=#36393d;" vertex="1" parent="1">
          <mxGeometry x="540" y="-170" width="120" height="60" as="geometry" />
        </mxCell>
        <mxCell id="Bshfgkw_j0F0Dgsfi_hr-49" value="" style="endArrow=none;html=1;rounded=1;strokeWidth=2;" edge="1" parent="1">
          <mxGeometry width="50" height="50" relative="1" as="geometry">
            <mxPoint x="90" y="-80" as="sourcePoint" />
            <mxPoint x="1120" y="-80" as="targetPoint" />
          </mxGeometry>
        </mxCell>
        <mxCell id="Bshfgkw_j0F0Dgsfi_hr-56" style="edgeStyle=orthogonalEdgeStyle;shape=connector;curved=1;rounded=0;orthogonalLoop=1;jettySize=auto;html=1;entryX=0;entryY=0.5;entryDx=0;entryDy=0;labelBackgroundColor=default;strokeColor=#006EAF;fontFamily=Helvetica;fontSize=11;fontColor=default;endArrow=classic;fillColor=#1ba1e2;" edge="1" parent="1" source="Bshfgkw_j0F0Dgsfi_hr-50" target="Bshfgkw_j0F0Dgsfi_hr-48">
          <mxGeometry relative="1" as="geometry" />
        </mxCell>
        <mxCell id="Bshfgkw_j0F0Dgsfi_hr-50" value="Предложить указать название сессии" style="rounded=0;whiteSpace=wrap;html=1;fillColor=#ffcccc;strokeColor=#36393d;" vertex="1" parent="1">
          <mxGeometry x="370" y="-60" width="120" height="60" as="geometry" />
        </mxCell>
        <mxCell id="Bshfgkw_j0F0Dgsfi_hr-51" value="Actor" style="shape=umlActor;verticalLabelPosition=bottom;verticalAlign=top;html=1;outlineConnect=0;" vertex="1" parent="1">
          <mxGeometry x="110" y="-170" width="30" height="60" as="geometry" />
        </mxCell>
        <mxCell id="Bshfgkw_j0F0Dgsfi_hr-53" value="" style="verticalLabelPosition=bottom;html=1;verticalAlign=top;strokeWidth=1;align=center;outlineConnect=0;dashed=0;outlineConnect=0;shape=mxgraph.aws3d.worker;fillColor=#ECECEC;strokeColor=#5E5E5E;aspect=fixed;" vertex="1" parent="1">
          <mxGeometry x="88" y="-55" width="74" height="50" as="geometry" />
        </mxCell>
        <mxCell id="Bshfgkw_j0F0Dgsfi_hr-63" value="" style="edgeStyle=orthogonalEdgeStyle;shape=connector;curved=1;rounded=0;orthogonalLoop=1;jettySize=auto;html=1;labelBackgroundColor=default;strokeColor=#006EAF;fontFamily=Helvetica;fontSize=11;fontColor=default;endArrow=classic;fillColor=#1ba1e2;" edge="1" parent="1" source="Bshfgkw_j0F0Dgsfi_hr-57" target="Bshfgkw_j0F0Dgsfi_hr-58">
          <mxGeometry relative="1" as="geometry" />
        </mxCell>
        <mxCell id="Bshfgkw_j0F0Dgsfi_hr-57" value="Создать польователя, если еще не создан" style="rounded=0;whiteSpace=wrap;html=1;fillColor=#ffcccc;strokeColor=#36393d;" vertex="1" parent="1">
          <mxGeometry x="680" y="-55" width="120" height="60" as="geometry" />
        </mxCell>
        <mxCell id="Bshfgkw_j0F0Dgsfi_hr-64" value="" style="edgeStyle=orthogonalEdgeStyle;shape=connector;curved=1;rounded=0;orthogonalLoop=1;jettySize=auto;html=1;labelBackgroundColor=default;strokeColor=#006EAF;fontFamily=Helvetica;fontSize=11;fontColor=default;endArrow=classic;fillColor=#1ba1e2;" edge="1" parent="1" source="Bshfgkw_j0F0Dgsfi_hr-58" target="Bshfgkw_j0F0Dgsfi_hr-59">
          <mxGeometry relative="1" as="geometry" />
        </mxCell>
        <mxCell id="Bshfgkw_j0F0Dgsfi_hr-58" value="Создать участника сессии, если еще не создан" style="rounded=0;whiteSpace=wrap;html=1;fillColor=#ffcccc;strokeColor=#36393d;" vertex="1" parent="1">
          <mxGeometry x="830" y="-55" width="120" height="60" as="geometry" />
        </mxCell>
        <mxCell id="Bshfgkw_j0F0Dgsfi_hr-59" value="Создать сессию и в качестве создателя указать пользователя" style="rounded=0;whiteSpace=wrap;html=1;fillColor=#ffcccc;strokeColor=#36393d;" vertex="1" parent="1">
          <mxGeometry x="980" y="-55" width="120" height="60" as="geometry" />
        </mxCell>
        <mxCell id="Bshfgkw_j0F0Dgsfi_hr-61" value="Horizontal Container" style="swimlane;horizontal=0;whiteSpace=wrap;html=1;fontFamily=Helvetica;fontSize=11;fontColor=#ffffff;fillColor=#008a00;strokeColor=#005700;strokeWidth=2;" vertex="1" parent="1">
          <mxGeometry y="-270" width="1160" height="320" as="geometry" />
        </mxCell>
        <mxCell id="Bshfgkw_j0F0Dgsfi_hr-70" value="" style="endArrow=none;html=1;rounded=1;strokeWidth=2;" edge="1" parent="1">
          <mxGeometry width="50" height="50" relative="1" as="geometry">
            <mxPoint x="90" y="640" as="sourcePoint" />
            <mxPoint x="1120" y="640" as="targetPoint" />
          </mxGeometry>
        </mxCell>
        <mxCell id="Bshfgkw_j0F0Dgsfi_hr-73" value="Actor" style="shape=umlActor;verticalLabelPosition=bottom;verticalAlign=top;html=1;outlineConnect=0;" vertex="1" parent="1">
          <mxGeometry x="110" y="550" width="30" height="60" as="geometry" />
        </mxCell>
        <mxCell id="Bshfgkw_j0F0Dgsfi_hr-74" value="" style="verticalLabelPosition=bottom;html=1;verticalAlign=top;strokeWidth=1;align=center;outlineConnect=0;dashed=0;outlineConnect=0;shape=mxgraph.aws3d.worker;fillColor=#ECECEC;strokeColor=#5E5E5E;aspect=fixed;" vertex="1" parent="1">
          <mxGeometry x="88" y="665" width="74" height="50" as="geometry" />
        </mxCell>
        <mxCell id="Bshfgkw_j0F0Dgsfi_hr-80" value="Horizontal Container" style="swimlane;horizontal=0;whiteSpace=wrap;html=1;fontFamily=Helvetica;fontSize=11;fontColor=#ffffff;fillColor=#008a00;strokeColor=#005700;strokeWidth=2;" vertex="1" parent="1">
          <mxGeometry x="10" y="230" width="1160" height="590" as="geometry" />
        </mxCell>
        <mxCell id="Bshfgkw_j0F0Dgsfi_hr-9" value="&lt;h1&gt;Добавление записи о покупке&lt;/h1&gt;" style="text;html=1;strokeColor=none;fillColor=none;spacing=5;spacingTop=-20;whiteSpace=wrap;overflow=hidden;rounded=0;direction=south;" vertex="1" parent="Bshfgkw_j0F0Dgsfi_hr-80">
          <mxGeometry x="30" y="10" width="275" height="60" as="geometry" />
        </mxCell>
        <mxCell id="Bshfgkw_j0F0Dgsfi_hr-82" style="edgeStyle=orthogonalEdgeStyle;shape=connector;curved=1;rounded=0;orthogonalLoop=1;jettySize=auto;html=1;entryX=0;entryY=0.5;entryDx=0;entryDy=0;labelBackgroundColor=default;strokeColor=#006EAF;fontFamily=Helvetica;fontSize=11;fontColor=default;endArrow=classic;fillColor=#1ba1e2;" edge="1" parent="Bshfgkw_j0F0Dgsfi_hr-80" source="Bshfgkw_j0F0Dgsfi_hr-14" target="Bshfgkw_j0F0Dgsfi_hr-81">
          <mxGeometry relative="1" as="geometry" />
        </mxCell>
        <mxCell id="Bshfgkw_j0F0Dgsfi_hr-14" value="Вызвать команду /add_purchase" style="rounded=0;whiteSpace=wrap;html=1;fillColor=#ffcc99;strokeColor=#36393d;" vertex="1" parent="Bshfgkw_j0F0Dgsfi_hr-80">
          <mxGeometry x="200" y="330" width="120" height="60" as="geometry" />
        </mxCell>
        <mxCell id="Bshfgkw_j0F0Dgsfi_hr-85" style="edgeStyle=orthogonalEdgeStyle;shape=connector;curved=1;rounded=0;orthogonalLoop=1;jettySize=auto;html=1;entryX=0;entryY=0.5;entryDx=0;entryDy=0;labelBackgroundColor=default;strokeColor=#006EAF;fontFamily=Helvetica;fontSize=11;fontColor=default;endArrow=classic;fillColor=#1ba1e2;" edge="1" parent="Bshfgkw_j0F0Dgsfi_hr-80" source="Bshfgkw_j0F0Dgsfi_hr-15" target="Bshfgkw_j0F0Dgsfi_hr-84">
          <mxGeometry relative="1" as="geometry" />
        </mxCell>
        <mxCell id="Bshfgkw_j0F0Dgsfi_hr-15" value="Перечислить список продуктов и их стоимость через запятую" style="rounded=0;whiteSpace=wrap;html=1;fillColor=#ffcc99;strokeColor=#36393d;" vertex="1" parent="Bshfgkw_j0F0Dgsfi_hr-80">
          <mxGeometry x="490" y="340" width="120" height="60" as="geometry" />
        </mxCell>
        <mxCell id="Bshfgkw_j0F0Dgsfi_hr-16" value="Стоимость указываем за единицу" style="rounded=0;whiteSpace=wrap;html=1;fillColor=#fff2cc;strokeColor=#d6b656;" vertex="1" parent="Bshfgkw_j0F0Dgsfi_hr-80">
          <mxGeometry x="490" y="270" width="120" height="60" as="geometry" />
        </mxCell>
        <mxCell id="Bshfgkw_j0F0Dgsfi_hr-17" value="&lt;font style=&quot;font-size: 9px;&quot;&gt;Доп аргументом делаем указание числа продуктов (если было куплено больше единицы)&lt;/font&gt;" style="rounded=0;whiteSpace=wrap;html=1;fillColor=#fff2cc;strokeColor=#d6b656;" vertex="1" parent="Bshfgkw_j0F0Dgsfi_hr-80">
          <mxGeometry x="490" y="190" width="120" height="60" as="geometry" />
        </mxCell>
        <mxCell id="Bshfgkw_j0F0Dgsfi_hr-34" value="пиво, 200[, 2]&amp;nbsp;" style="shape=note;whiteSpace=wrap;html=1;backgroundOutline=1;darkOpacity=0.05;" vertex="1" parent="Bshfgkw_j0F0Dgsfi_hr-80">
          <mxGeometry x="510" y="70" width="80" height="100" as="geometry" />
        </mxCell>
        <mxCell id="Bshfgkw_j0F0Dgsfi_hr-83" style="edgeStyle=orthogonalEdgeStyle;shape=connector;curved=1;rounded=0;orthogonalLoop=1;jettySize=auto;html=1;entryX=0;entryY=0.5;entryDx=0;entryDy=0;labelBackgroundColor=default;strokeColor=#006EAF;fontFamily=Helvetica;fontSize=11;fontColor=default;endArrow=classic;fillColor=#1ba1e2;" edge="1" parent="Bshfgkw_j0F0Dgsfi_hr-80" source="Bshfgkw_j0F0Dgsfi_hr-81" target="Bshfgkw_j0F0Dgsfi_hr-15">
          <mxGeometry relative="1" as="geometry" />
        </mxCell>
        <mxCell id="Bshfgkw_j0F0Dgsfi_hr-81" value="Предложить указать список покупок" style="rounded=0;whiteSpace=wrap;html=1;fillColor=#ffcccc;strokeColor=#36393d;" vertex="1" parent="Bshfgkw_j0F0Dgsfi_hr-80">
          <mxGeometry x="340" y="430" width="120" height="60" as="geometry" />
        </mxCell>
        <mxCell id="Bshfgkw_j0F0Dgsfi_hr-84" value="Распарсить список" style="rounded=0;whiteSpace=wrap;html=1;fillColor=#ffcccc;strokeColor=#36393d;" vertex="1" parent="Bshfgkw_j0F0Dgsfi_hr-80">
          <mxGeometry x="640" y="440" width="120" height="60" as="geometry" />
        </mxCell>
        <mxCell id="Bshfgkw_j0F0Dgsfi_hr-86" value="Распарсить список" style="rounded=0;whiteSpace=wrap;html=1;fillColor=#ffcccc;strokeColor=#36393d;" vertex="1" parent="Bshfgkw_j0F0Dgsfi_hr-80">
          <mxGeometry x="790" y="440" width="120" height="60" as="geometry" />
        </mxCell>
        <mxCell id="Bshfgkw_j0F0Dgsfi_hr-87" value="Вася" style="rounded=0;whiteSpace=wrap;html=1;fontFamily=Helvetica;fontSize=11;fontColor=#ffffff;fillColor=#d80073;strokeColor=#A50040;" vertex="1" parent="1">
          <mxGeometry x="1040" y="1450" width="120" height="60" as="geometry" />
        </mxCell>
        <mxCell id="Bshfgkw_j0F0Dgsfi_hr-98" style="edgeStyle=orthogonalEdgeStyle;shape=connector;curved=1;rounded=0;orthogonalLoop=1;jettySize=auto;html=1;labelBackgroundColor=default;strokeColor=#006EAF;fontFamily=Helvetica;fontSize=11;fontColor=default;endArrow=classic;fillColor=#1ba1e2;" edge="1" parent="1" source="Bshfgkw_j0F0Dgsfi_hr-88" target="Bshfgkw_j0F0Dgsfi_hr-95">
          <mxGeometry relative="1" as="geometry" />
        </mxCell>
        <mxCell id="Bshfgkw_j0F0Dgsfi_hr-99" style="edgeStyle=orthogonalEdgeStyle;shape=connector;curved=1;rounded=0;orthogonalLoop=1;jettySize=auto;html=1;exitX=0;exitY=0.5;exitDx=0;exitDy=0;entryX=1;entryY=0.5;entryDx=0;entryDy=0;labelBackgroundColor=default;strokeColor=#006EAF;fontFamily=Helvetica;fontSize=11;fontColor=default;endArrow=classic;fillColor=#1ba1e2;" edge="1" parent="1" source="Bshfgkw_j0F0Dgsfi_hr-88" target="Bshfgkw_j0F0Dgsfi_hr-96">
          <mxGeometry relative="1" as="geometry" />
        </mxCell>
        <mxCell id="Bshfgkw_j0F0Dgsfi_hr-88" value="Дима" style="rounded=0;whiteSpace=wrap;html=1;fontFamily=Helvetica;fontSize=11;fontColor=#ffffff;fillColor=#0050ef;strokeColor=#001DBC;" vertex="1" parent="1">
          <mxGeometry x="1600" y="1350" width="120" height="60" as="geometry" />
        </mxCell>
        <mxCell id="Bshfgkw_j0F0Dgsfi_hr-91" value="Пиво" style="shape=parallelogram;perimeter=parallelogramPerimeter;whiteSpace=wrap;html=1;fixedSize=1;fontFamily=Helvetica;fontSize=11;fontColor=default;" vertex="1" parent="1">
          <mxGeometry x="1215" y="1360" width="120" height="60" as="geometry" />
        </mxCell>
        <mxCell id="Bshfgkw_j0F0Dgsfi_hr-92" value="Вода" style="shape=parallelogram;perimeter=parallelogramPerimeter;whiteSpace=wrap;html=1;fixedSize=1;fontFamily=Helvetica;fontSize=11;fontColor=default;" vertex="1" parent="1">
          <mxGeometry x="1210" y="1450" width="120" height="60" as="geometry" />
        </mxCell>
        <mxCell id="Bshfgkw_j0F0Dgsfi_hr-93" value="Хлеб" style="shape=parallelogram;perimeter=parallelogramPerimeter;whiteSpace=wrap;html=1;fixedSize=1;fontFamily=Helvetica;fontSize=11;fontColor=default;" vertex="1" parent="1">
          <mxGeometry x="1215" y="1540" width="120" height="60" as="geometry" />
        </mxCell>
        <mxCell id="Bshfgkw_j0F0Dgsfi_hr-95" value="100" style="ellipse;whiteSpace=wrap;html=1;aspect=fixed;fontFamily=Helvetica;fontSize=11;fontColor=default;" vertex="1" parent="1">
          <mxGeometry x="1350" y="1350" width="70" height="70" as="geometry" />
        </mxCell>
        <mxCell id="Bshfgkw_j0F0Dgsfi_hr-96" value="250" style="ellipse;whiteSpace=wrap;html=1;aspect=fixed;fontFamily=Helvetica;fontSize=11;fontColor=default;" vertex="1" parent="1">
          <mxGeometry x="1350" y="1445" width="70" height="70" as="geometry" />
        </mxCell>
        <mxCell id="Bshfgkw_j0F0Dgsfi_hr-97" value="250" style="ellipse;whiteSpace=wrap;html=1;aspect=fixed;fontFamily=Helvetica;fontSize=11;fontColor=default;" vertex="1" parent="1">
          <mxGeometry x="1350" y="1540" width="70" height="70" as="geometry" />
        </mxCell>
        <mxCell id="Bshfgkw_j0F0Dgsfi_hr-101" style="edgeStyle=orthogonalEdgeStyle;shape=connector;curved=1;rounded=0;orthogonalLoop=1;jettySize=auto;html=1;entryX=1;entryY=0.5;entryDx=0;entryDy=0;labelBackgroundColor=default;strokeColor=#2D7600;fontFamily=Helvetica;fontSize=11;fontColor=default;endArrow=classic;fillColor=#60a917;" edge="1" parent="1" source="Bshfgkw_j0F0Dgsfi_hr-100" target="Bshfgkw_j0F0Dgsfi_hr-96">
          <mxGeometry relative="1" as="geometry" />
        </mxCell>
        <mxCell id="Bshfgkw_j0F0Dgsfi_hr-102" style="edgeStyle=orthogonalEdgeStyle;shape=connector;curved=1;rounded=0;orthogonalLoop=1;jettySize=auto;html=1;labelBackgroundColor=default;strokeColor=#2D7600;fontFamily=Helvetica;fontSize=11;fontColor=default;endArrow=classic;fillColor=#60a917;" edge="1" parent="1" source="Bshfgkw_j0F0Dgsfi_hr-100" target="Bshfgkw_j0F0Dgsfi_hr-97">
          <mxGeometry relative="1" as="geometry" />
        </mxCell>
        <mxCell id="Bshfgkw_j0F0Dgsfi_hr-100" value="Максим" style="rounded=0;whiteSpace=wrap;html=1;fontFamily=Helvetica;fontSize=11;fontColor=#ffffff;fillColor=#60a917;strokeColor=#2D7600;" vertex="1" parent="1">
          <mxGeometry x="1600" y="1500" width="120" height="60" as="geometry" />
        </mxCell>
        <mxCell id="Bshfgkw_j0F0Dgsfi_hr-106" value="&lt;font style=&quot;font-size: 21px;&quot;&gt;Вася купил 1 пиво за 100 (100)&lt;br&gt;&lt;/font&gt;" style="rounded=0;whiteSpace=wrap;html=1;fontFamily=Helvetica;fontSize=11;fontColor=default;" vertex="1" parent="1">
          <mxGeometry x="1830" y="1200" width="420" height="60" as="geometry" />
        </mxCell>
        <mxCell id="Bshfgkw_j0F0Dgsfi_hr-108" value="&lt;font style=&quot;font-size: 21px;&quot;&gt;Макс купил 1 дилдо за 500&lt;br&gt;&lt;/font&gt;" style="rounded=0;whiteSpace=wrap;html=1;fontFamily=Helvetica;fontSize=11;fontColor=default;" vertex="1" parent="1">
          <mxGeometry x="1830" y="1340" width="420" height="60" as="geometry" />
        </mxCell>
        <mxCell id="Bshfgkw_j0F0Dgsfi_hr-109" value="&lt;font style=&quot;font-size: 21px;&quot;&gt;Вася купил 3 воду за 50 (150)&lt;br&gt;&lt;/font&gt;" style="rounded=0;whiteSpace=wrap;html=1;fontFamily=Helvetica;fontSize=11;fontColor=default;" vertex="1" parent="1">
          <mxGeometry x="1830" y="1270" width="420" height="60" as="geometry" />
        </mxCell>
        <mxCell id="Bshfgkw_j0F0Dgsfi_hr-110" value="&lt;font style=&quot;font-size: 21px;&quot;&gt;Макс юзал воду Васи&lt;br&gt;&lt;/font&gt;" style="rounded=0;whiteSpace=wrap;html=1;fontFamily=Helvetica;fontSize=11;fontColor=default;" vertex="1" parent="1">
          <mxGeometry x="2330" y="1200" width="420" height="60" as="geometry" />
        </mxCell>
        <mxCell id="Bshfgkw_j0F0Dgsfi_hr-111" value="&lt;font style=&quot;font-size: 21px;&quot;&gt;Вася юзал дилдо Макса&lt;br&gt;&lt;/font&gt;" style="rounded=0;whiteSpace=wrap;html=1;fontFamily=Helvetica;fontSize=11;fontColor=default;" vertex="1" parent="1">
          <mxGeometry x="2330" y="1270" width="420" height="60" as="geometry" />
        </mxCell>
        <mxCell id="Bshfgkw_j0F0Dgsfi_hr-112" value="&lt;font style=&quot;font-size: 21px;&quot;&gt;Макса юзал дилдо Макса&lt;br&gt;&lt;/font&gt;" style="rounded=0;whiteSpace=wrap;html=1;fontFamily=Helvetica;fontSize=11;fontColor=default;" vertex="1" parent="1">
          <mxGeometry x="2330" y="1340" width="420" height="60" as="geometry" />
        </mxCell>
        <mxCell id="Bshfgkw_j0F0Dgsfi_hr-113" value="&lt;span style=&quot;font-size: 26px;&quot;&gt;Вася&amp;nbsp;&lt;br&gt;+ 150 за воду от макса&lt;br&gt;– 250 за дилдо максу&lt;br&gt;&lt;/span&gt;" style="text;html=1;align=center;verticalAlign=middle;resizable=0;points=[];autosize=1;strokeColor=none;fillColor=none;fontSize=11;fontFamily=Helvetica;fontColor=default;" vertex="1" parent="1">
          <mxGeometry x="1770" y="1445" width="300" height="110" as="geometry" />
        </mxCell>
        <mxCell id="Bshfgkw_j0F0Dgsfi_hr-114" value="&lt;span style=&quot;font-size: 26px;&quot;&gt;Макс&lt;br&gt;+ 250 за дилдо от Васи&lt;br&gt;&lt;strike&gt;+ 250 за дилдо от Макса&lt;br&gt;&lt;/strike&gt;– 150 за воду Васпе&lt;br&gt;&lt;/span&gt;" style="text;html=1;align=center;verticalAlign=middle;resizable=0;points=[];autosize=1;strokeColor=none;fillColor=none;fontSize=11;fontFamily=Helvetica;fontColor=default;" vertex="1" parent="1">
          <mxGeometry x="2090" y="1450" width="330" height="140" as="geometry" />
        </mxCell>
      </root>
    </mxGraphModel>
  </diagram>
</mxfile>
